<svg width="94" height="44" viewBox="0 0 94 44" fill="none" xmlns="http://www.w3.org/2000/svg">
<rect width="94" height="44" rx="8" fill="#615EF0" fill-opacity="0.1"/>
<path d="M27.05 24.95L25.2 26.8C24.81 27.19 24.19 27.19 23.79 26.81C23.68 26.7 23.57 26.6 23.46 26.49C22.4488 25.472 21.5161 24.3789 20.67 23.22C19.85 22.08 19.19 20.94 18.71 19.81C18.24 18.67 18 17.58 18 16.54C18 15.86 18.12 15.21 18.36 14.61C18.6 14 18.98 13.44 19.51 12.94C20.15 12.31 20.85 12 21.59 12C21.87 12 22.15 12.06 22.4 12.18C22.66 12.3 22.89 12.48 23.07 12.74L25.39 16.01C25.57 16.26 25.7 16.49 25.79 16.71C25.88 16.92 25.93 17.13 25.93 17.32C25.93 17.56 25.86 17.8 25.72 18.03C25.59 18.26 25.4 18.5 25.16 18.74L24.4 19.53C24.29 19.64 24.24 19.77 24.24 19.93C24.24 20.01 24.25 20.08 24.27 20.16C24.3 20.24 24.33 20.3 24.35 20.36C24.53 20.69 24.84 21.12 25.28 21.64C25.73 22.16 26.21 22.69 26.73 23.22C26.83 23.32 26.94 23.42 27.04 23.52C27.44 23.91 27.45 24.55 27.05 24.95ZM37.97 28.33C37.9687 28.7074 37.8833 29.0798 37.72 29.42C37.55 29.78 37.33 30.12 37.04 30.44C36.55 30.98 36.01 31.37 35.4 31.62C35.39 31.62 35.38 31.63 35.37 31.63C34.78 31.87 34.14 32 33.45 32C32.43 32 31.34 31.76 30.19 31.27C29.04 30.78 27.89 30.12 26.75 29.29C26.36 29 25.97 28.71 25.6 28.4L28.87 25.13C29.15 25.34 29.4 25.5 29.61 25.61C29.66 25.63 29.72 25.66 29.79 25.69C29.87 25.72 29.95 25.73 30.04 25.73C30.21 25.73 30.34 25.67 30.45 25.56L31.21 24.81C31.46 24.56 31.7 24.37 31.93 24.25C32.16 24.11 32.39 24.04 32.64 24.04C32.83 24.04 33.03 24.08 33.25 24.17C33.47 24.26 33.7 24.39 33.95 24.56L37.26 26.91C37.52 27.09 37.7 27.3 37.81 27.55C37.91 27.8 37.97 28.05 37.97 28.33Z" fill="#615EF0"/>
<path d="M59.108 20.2898H56.983C56.9223 19.9413 56.8106 19.6326 56.6477 19.3636C56.4848 19.0909 56.2822 18.8598 56.0398 18.6705C55.7973 18.4811 55.5208 18.339 55.2102 18.2443C54.9034 18.1458 54.572 18.0966 54.2159 18.0966C53.5833 18.0966 53.0227 18.2557 52.5341 18.5739C52.0455 18.8883 51.6629 19.3504 51.3864 19.9602C51.1098 20.5663 50.9716 21.3068 50.9716 22.1818C50.9716 23.072 51.1098 23.822 51.3864 24.4318C51.6667 25.0379 52.0492 25.4962 52.5341 25.8068C53.0227 26.1136 53.5814 26.267 54.2102 26.267C54.5587 26.267 54.8845 26.2216 55.1875 26.1307C55.4943 26.036 55.7689 25.8977 56.0114 25.7159C56.2576 25.5341 56.464 25.3106 56.6307 25.0455C56.8011 24.7803 56.9186 24.4773 56.983 24.1364L59.108 24.1477C59.0284 24.7008 58.8561 25.2197 58.5909 25.7045C58.3295 26.1894 57.9867 26.6174 57.5625 26.9886C57.1383 27.3561 56.642 27.6439 56.0739 27.8523C55.5057 28.0568 54.875 28.1591 54.1818 28.1591C53.1591 28.1591 52.2462 27.9223 51.4432 27.4489C50.6402 26.9754 50.0076 26.2917 49.5455 25.3977C49.0833 24.5038 48.8523 23.4318 48.8523 22.1818C48.8523 20.928 49.0852 19.8561 49.5511 18.9659C50.017 18.072 50.6515 17.3883 51.4545 16.9148C52.2576 16.4413 53.1667 16.2045 54.1818 16.2045C54.8295 16.2045 55.4318 16.2955 55.9886 16.4773C56.5455 16.6591 57.0417 16.9261 57.4773 17.2784C57.9129 17.6269 58.2708 18.0549 58.5511 18.5625C58.8352 19.0663 59.0208 19.642 59.108 20.2898ZM63.4588 28.1761C62.9058 28.1761 62.4077 28.0777 61.9645 27.8807C61.5251 27.6799 61.1766 27.3845 60.919 26.9943C60.6652 26.6042 60.5384 26.1231 60.5384 25.5511C60.5384 25.0587 60.6293 24.6515 60.8111 24.3295C60.9929 24.0076 61.241 23.75 61.5554 23.5568C61.8698 23.3636 62.224 23.2178 62.6179 23.1193C63.0156 23.017 63.4266 22.9432 63.8509 22.8977C64.3622 22.8447 64.777 22.7973 65.0952 22.7557C65.4134 22.7102 65.6444 22.642 65.7884 22.5511C65.9361 22.4564 66.0099 22.3106 66.0099 22.1136V22.0795C66.0099 21.6515 65.883 21.3201 65.6293 21.0852C65.3755 20.8504 65.0099 20.733 64.5327 20.733C64.0289 20.733 63.6293 20.8428 63.3338 21.0625C63.0421 21.2822 62.8452 21.5417 62.7429 21.8409L60.8224 21.5682C60.974 21.0379 61.224 20.5947 61.5724 20.2386C61.9209 19.8788 62.3471 19.6098 62.8509 19.4318C63.3546 19.25 63.9115 19.1591 64.5213 19.1591C64.9418 19.1591 65.3603 19.2083 65.777 19.3068C66.1937 19.4053 66.5743 19.5682 66.919 19.7955C67.2637 20.0189 67.5402 20.3239 67.7486 20.7102C67.9607 21.0966 68.0668 21.5795 68.0668 22.1591V28H66.0895V26.8011H66.0213C65.8963 27.0436 65.7202 27.2708 65.4929 27.483C65.2694 27.6913 64.9872 27.8598 64.6463 27.9886C64.3092 28.1136 63.9134 28.1761 63.4588 28.1761ZM63.9929 26.6648C64.4058 26.6648 64.7637 26.5833 65.0668 26.4205C65.3698 26.2538 65.6027 26.0341 65.7656 25.7614C65.9323 25.4886 66.0156 25.1913 66.0156 24.8693V23.8409C65.9512 23.8939 65.8414 23.9432 65.6861 23.9886C65.5346 24.0341 65.3641 24.0739 65.1747 24.108C64.9853 24.142 64.7978 24.1723 64.6122 24.1989C64.4266 24.2254 64.2656 24.2481 64.1293 24.267C63.8224 24.3087 63.5478 24.3769 63.3054 24.4716C63.063 24.5663 62.8717 24.6989 62.7315 24.8693C62.5914 25.036 62.5213 25.2519 62.5213 25.517C62.5213 25.8958 62.6596 26.1818 62.9361 26.375C63.2126 26.5682 63.5649 26.6648 63.9929 26.6648ZM72.1918 16.3636V28H70.1349V16.3636H72.1918ZM76.3636 16.3636V28H74.3068V16.3636H76.3636Z" fill="#615EF0"/>
</svg>
