<svg width="48" height="48" viewBox="0 0 48 48" fill="none" xmlns="http://www.w3.org/2000/svg">
<rect width="48" height="48" rx="12" fill="#F0FFF4"/>
<path d="M21 34H27C32 34 34 32 34 27V21C34 16 32 14 27 14H21C16 14 14 16 14 21V27C14 32 16 34 21 34Z" stroke="#48BB78" stroke-width="1.5" stroke-linecap="round" stroke-linejoin="round"/>
<path d="M14.67 30.95L19.6 27.64C20.39 27.11 21.53 27.17 22.24 27.78L22.57 28.07C23.35 28.74 24.61 28.74 25.39 28.07L29.55 24.5C30.33 23.83 31.59 23.83 32.37 24.5L34 25.9M21 22C21.5304 22 22.0392 21.7893 22.4142 21.4142C22.7893 21.0391 23 20.5304 23 20C23 19.4696 22.7893 18.9609 22.4142 18.5858C22.0392 18.2107 21.5304 18 21 18C20.4696 18 19.9609 18.2107 19.5858 18.5858C19.2107 18.9609 19 19.4696 19 20C19 20.5304 19.2107 21.0391 19.5858 21.4142C19.9609 21.7893 20.4696 22 21 22Z" stroke="#48BB78" stroke-width="1.5" stroke-linecap="round" stroke-linejoin="round"/>
</svg>
